<mxfile host="Electron" modified="2023-11-14T04:48:21.992Z" agent="Mozilla/5.0 (Macintosh; Intel Mac OS X 10_15_7) AppleWebKit/537.36 (KHTML, like Gecko) draw.io/22.0.3 Chrome/114.0.5735.289 Electron/25.8.4 Safari/537.36" etag="vnABx40NxpPd7rjYD8RE" version="22.0.3" type="device">
  <diagram name="Page-1" id="BKqcrxm5JFJFUVGPcL-i">
    <mxGraphModel dx="1038" dy="770" grid="1" gridSize="10" guides="1" tooltips="1" connect="1" arrows="1" fold="1" page="1" pageScale="1" pageWidth="850" pageHeight="1100" math="0" shadow="0">
      <root>
        <mxCell id="0" />
        <mxCell id="1" parent="0" />
        <mxCell id="s_5SZ4UCxDmVHGCMa6Cb-7" value="" style="rounded=0;whiteSpace=wrap;html=1;fillColor=#fff2cc;strokeColor=#d6b656;" vertex="1" parent="1">
          <mxGeometry x="300" y="210" width="150" height="30" as="geometry" />
        </mxCell>
        <mxCell id="s_5SZ4UCxDmVHGCMa6Cb-3" value="i" style="text;html=1;align=center;verticalAlign=middle;resizable=0;points=[];autosize=1;strokeColor=none;fillColor=none;fontFamily=Comic Sans MS;fontSize=35;" vertex="1" parent="1">
          <mxGeometry x="220" y="195" width="30" height="60" as="geometry" />
        </mxCell>
        <mxCell id="s_5SZ4UCxDmVHGCMa6Cb-4" value="i+1" style="text;html=1;align=center;verticalAlign=middle;resizable=0;points=[];autosize=1;strokeColor=none;fillColor=none;fontFamily=Comic Sans MS;fontSize=35;" vertex="1" parent="1">
          <mxGeometry x="200" y="255" width="70" height="60" as="geometry" />
        </mxCell>
        <mxCell id="s_5SZ4UCxDmVHGCMa6Cb-5" value="c" style="text;html=1;strokeColor=none;fillColor=none;align=center;verticalAlign=middle;whiteSpace=wrap;rounded=0;fontSize=35;fontFamily=Comic Sans MS;" vertex="1" parent="1">
          <mxGeometry x="410" y="130" width="60" height="30" as="geometry" />
        </mxCell>
        <mxCell id="s_5SZ4UCxDmVHGCMa6Cb-6" value="" style="endArrow=classic;html=1;rounded=0;entryX=0.615;entryY=-0.08;entryDx=0;entryDy=0;entryPerimeter=0;" edge="1" parent="1" source="s_5SZ4UCxDmVHGCMa6Cb-5" target="s_5SZ4UCxDmVHGCMa6Cb-1">
          <mxGeometry width="50" height="50" relative="1" as="geometry">
            <mxPoint x="440" y="470" as="sourcePoint" />
            <mxPoint x="490" y="420" as="targetPoint" />
          </mxGeometry>
        </mxCell>
        <mxCell id="s_5SZ4UCxDmVHGCMa6Cb-8" value="" style="rounded=0;whiteSpace=wrap;html=1;fillColor=#fff2cc;strokeColor=#d6b656;" vertex="1" parent="1">
          <mxGeometry x="430" y="270" width="90" height="30" as="geometry" />
        </mxCell>
        <mxCell id="s_5SZ4UCxDmVHGCMa6Cb-2" value="0 2 2 5 6 6 9" style="rounded=0;whiteSpace=wrap;html=1;fontFamily=Comic Sans MS;fontSize=35;fillColor=none;" vertex="1" parent="1">
          <mxGeometry x="280" y="260" width="260" height="50" as="geometry" />
        </mxCell>
        <mxCell id="s_5SZ4UCxDmVHGCMa6Cb-1" value="0 2 2 5 6 6 9" style="rounded=0;whiteSpace=wrap;html=1;fontFamily=Comic Sans MS;fontSize=35;fillColor=none;" vertex="1" parent="1">
          <mxGeometry x="280" y="200" width="260" height="50" as="geometry" />
        </mxCell>
        <mxCell id="s_5SZ4UCxDmVHGCMa6Cb-9" value="" style="rounded=0;whiteSpace=wrap;html=1;fillColor=#fff2cc;strokeColor=#d6b656;" vertex="1" parent="1">
          <mxGeometry x="300" y="470" width="150" height="30" as="geometry" />
        </mxCell>
        <mxCell id="s_5SZ4UCxDmVHGCMa6Cb-10" value="i" style="text;html=1;align=center;verticalAlign=middle;resizable=0;points=[];autosize=1;strokeColor=none;fillColor=none;fontFamily=Comic Sans MS;fontSize=35;" vertex="1" parent="1">
          <mxGeometry x="220" y="395" width="30" height="60" as="geometry" />
        </mxCell>
        <mxCell id="s_5SZ4UCxDmVHGCMa6Cb-11" value="i+1" style="text;html=1;align=center;verticalAlign=middle;resizable=0;points=[];autosize=1;strokeColor=none;fillColor=none;fontFamily=Comic Sans MS;fontSize=35;" vertex="1" parent="1">
          <mxGeometry x="200" y="455" width="70" height="60" as="geometry" />
        </mxCell>
        <mxCell id="s_5SZ4UCxDmVHGCMa6Cb-12" value="c" style="text;html=1;strokeColor=none;fillColor=none;align=center;verticalAlign=middle;whiteSpace=wrap;rounded=0;fontSize=35;fontFamily=Comic Sans MS;" vertex="1" parent="1">
          <mxGeometry x="410" y="330" width="60" height="30" as="geometry" />
        </mxCell>
        <mxCell id="s_5SZ4UCxDmVHGCMa6Cb-13" value="" style="endArrow=classic;html=1;rounded=0;entryX=0.615;entryY=-0.08;entryDx=0;entryDy=0;entryPerimeter=0;" edge="1" parent="1" source="s_5SZ4UCxDmVHGCMa6Cb-12" target="s_5SZ4UCxDmVHGCMa6Cb-16">
          <mxGeometry width="50" height="50" relative="1" as="geometry">
            <mxPoint x="440" y="670" as="sourcePoint" />
            <mxPoint x="490" y="620" as="targetPoint" />
          </mxGeometry>
        </mxCell>
        <mxCell id="s_5SZ4UCxDmVHGCMa6Cb-14" value="" style="rounded=0;whiteSpace=wrap;html=1;fillColor=#fff2cc;strokeColor=#d6b656;" vertex="1" parent="1">
          <mxGeometry x="430" y="410" width="90" height="30" as="geometry" />
        </mxCell>
        <mxCell id="s_5SZ4UCxDmVHGCMa6Cb-15" value="0 2 2 5 6 6 9" style="rounded=0;whiteSpace=wrap;html=1;fontFamily=Comic Sans MS;fontSize=35;fillColor=none;" vertex="1" parent="1">
          <mxGeometry x="280" y="460" width="260" height="50" as="geometry" />
        </mxCell>
        <mxCell id="s_5SZ4UCxDmVHGCMa6Cb-16" value="0 2 2 5 6 6 9" style="rounded=0;whiteSpace=wrap;html=1;fontFamily=Comic Sans MS;fontSize=35;fillColor=none;" vertex="1" parent="1">
          <mxGeometry x="280" y="400" width="260" height="50" as="geometry" />
        </mxCell>
        <mxCell id="s_5SZ4UCxDmVHGCMa6Cb-17" value="倒序遍历" style="text;html=1;align=center;verticalAlign=middle;resizable=0;points=[];autosize=1;strokeColor=none;fillColor=none;fontFamily=Comic Sans MS;fontSize=20;" vertex="1" parent="1">
          <mxGeometry x="580" y="230" width="100" height="40" as="geometry" />
        </mxCell>
        <mxCell id="s_5SZ4UCxDmVHGCMa6Cb-18" value="正序遍历" style="text;html=1;align=center;verticalAlign=middle;resizable=0;points=[];autosize=1;strokeColor=none;fillColor=none;fontFamily=Comic Sans MS;fontSize=20;" vertex="1" parent="1">
          <mxGeometry x="580" y="430" width="100" height="40" as="geometry" />
        </mxCell>
      </root>
    </mxGraphModel>
  </diagram>
</mxfile>
